<svg width="51" height="51" viewBox="0 0 51 51" fill="none" xmlns="http://www.w3.org/2000/svg">
<rect x="0.501818" y="0.501818" width="49.1477" height="49.1477" rx="24.5739" fill="#141514"/>
<rect x="0.501818" y="0.501818" width="49.1477" height="49.1477" rx="24.5739" stroke="url(#paint0_linear_588_2333)" stroke-width="1.00364" stroke-linecap="round"/>
<path d="M14.6892 21.0557L14.7068 21.0244L14.7107 21.0186L23.8728 8.87109C23.9008 8.83428 23.942 8.81459 23.9841 8.81445C24.0158 8.81445 24.0475 8.82556 24.073 8.84668L24.0964 8.87109L33.2546 21.0176C33.2809 21.0533 33.2894 21.0966 33.283 21.1338L33.2712 21.168C33.2421 21.2197 33.1923 21.246 33.1472 21.2461L28.3396 21.2461L28.3396 39.1572C28.3396 39.2299 28.2768 39.293 28.2029 39.293L19.7693 39.293C19.6897 39.2927 19.6296 39.2277 19.6296 39.1572L19.6296 21.2461L14.822 21.2461C14.7835 21.246 14.7456 21.2282 14.7195 21.2002L14.6941 21.1621C14.677 21.1286 14.6763 21.0891 14.6892 21.0557Z" stroke="url(#paint1_linear_588_2333)" stroke-width="1.00364"/>
<path d="M10.0906 35.1061C9.24351 33.8403 9.38198 31.505 11.3582 28.2923C13.2586 25.2031 16.5901 21.8005 20.9358 18.8914C25.2816 15.9822 29.6978 14.1984 33.2782 13.6188C37.0013 13.0163 39.2134 13.7781 40.0608 15.0436C40.9081 16.3093 40.7699 18.6454 38.7937 21.8582C36.8934 24.9475 33.5606 28.3498 29.2148 31.2589C24.8691 34.168 20.4541 35.9521 16.8738 36.5317C13.1501 37.1345 10.9379 36.3718 10.0906 35.1061Z" stroke="url(#paint2_linear_588_2333)" stroke-width="3.01091"/>
<defs>
<linearGradient id="paint0_linear_588_2333" x1="3.51335" y1="-1.11195e-05" x2="27.4073" y2="55.0077" gradientUnits="userSpaceOnUse">
<stop stop-color="#73F36C" stop-opacity="0.4"/>
<stop offset="0.405687" stop-color="#73F36C" stop-opacity="0"/>
<stop offset="0.574372" stop-color="#73F36C" stop-opacity="0"/>
<stop offset="1" stop-color="#73F36C" stop-opacity="0.1"/>
</linearGradient>
<linearGradient id="paint1_linear_588_2333" x1="14.1785" y1="24.0538" x2="31.8751" y2="39.9134" gradientUnits="userSpaceOnUse">
<stop stop-color="#73F36C"/>
<stop offset="1" stop-color="#73F36C" stop-opacity="0"/>
</linearGradient>
<linearGradient id="paint2_linear_588_2333" x1="30.0526" y1="32.5102" x2="24.2589" y2="19.7016" gradientUnits="userSpaceOnUse">
<stop stop-color="#73F36C"/>
<stop offset="1" stop-color="#73F36C" stop-opacity="0"/>
</linearGradient>
</defs>
</svg>
